<?xml version="1.0" encoding="utf-8"?>
<!-- Generator: Adobe Illustrator 16.0.0, SVG Export Plug-In . SVG Version: 6.00 Build 0)  -->
<!DOCTYPE svg PUBLIC "-//W3C//DTD SVG 1.1//EN" "http://www.w3.org/Graphics/SVG/1.1/DTD/svg11.dtd">
<svg version="1.1" id="Layer_1" xmlns="http://www.w3.org/2000/svg" xmlns:xlink="http://www.w3.org/1999/xlink" x="0px" y="0px"
	 width="800.271px" height="269.573px" viewBox="0 0 800.271 269.573" enable-background="new 0 0 800.271 269.573"
	 xml:space="preserve">
<path opacity="0.7" fill="#64CCC9" d="M347.712,241.134c86.537-20.299,153.605-56.917,268.166-146.44
	c-178.745,10.126-284.949,86.965-352.712,150.416C291.074,247.831,319.144,247.835,347.712,241.134z"/>
<linearGradient id="SVGID_1_" gradientUnits="userSpaceOnUse" x1="143.8032" y1="299.1172" x2="143.8032" y2="-11.6598" gradientTransform="matrix(0.9355 -0.3534 0.3534 0.9355 -15.8141 274.1248)">
	<stop  offset="0" style="stop-color:#006237"/>
	<stop  offset="1" style="stop-color:#8ABD24"/>
</linearGradient>
<path opacity="0.7" fill="url(#SVGID_1_)" d="M263.166,245.171c-65.574-6.395-130.262-27.765-198.443-12.5
	C38.034,238.644,16.791,251.573,0,269.573h238.16C245.874,262.573,254.18,253.583,263.166,245.171z"/>
<linearGradient id="SVGID_2_" gradientUnits="userSpaceOnUse" x1="757.3008" y1="298.5371" x2="757.3008" y2="-12.6195" gradientTransform="matrix(0.9355 -0.3534 0.3534 0.9355 -15.8141 274.1248)">
	<stop  offset="0" style="stop-color:#006237"/>
	<stop  offset="1" style="stop-color:#8ABD24"/>
</linearGradient>
<path opacity="0.7" fill="url(#SVGID_2_)" d="M615.878,94.693c17.005-0.963,34.838-1.335,53.184-1.022
	c48.414,0.827,91.209-1.401,131.209-6.19V0c-53,9.318-102.297,29.068-146.201,64.486C640.815,75.177,627.991,85.229,615.878,94.693z
	"/>
<path opacity="0.7" fill="#64CCC9" d="M669.062,93.671c-18.346-0.313-36.086,0.06-53.09,1.022
	c-114.561,89.523-181.676,126.142-268.212,146.44c-28.568,6.701-56.663,6.758-84.571,4.037
	c-8.985,8.412-17.315,17.402-25.028,24.402h231.774l0.199-0.471c0,0,98.137-96.705,330.137-60.818V87.48
	C760.271,92.27,717.476,94.498,669.062,93.671z"/>
<linearGradient id="SVGID_3_" gradientUnits="userSpaceOnUse" x1="534.2764" y1="298.5371" x2="534.2764" y2="-12.4136" gradientTransform="matrix(0.9355 -0.3534 0.3534 0.9355 -15.8141 274.1248)">
	<stop  offset="0" style="stop-color:#006237"/>
	<stop  offset="1" style="stop-color:#8ABD24"/>
</linearGradient>
<path opacity="0.7" fill="url(#SVGID_3_)" d="M669.062,93.671c-18.346-0.313-36.086,0.06-53.09,1.022
	c-114.561,89.523-181.676,126.142-268.212,146.44c-28.568,6.701-56.663,6.758-84.571,4.037
	c-8.985,8.412-17.315,17.402-25.028,24.402h231.774l0.199-0.471c0,0,98.137-96.705,330.137-60.818V87.48
	C760.271,92.27,717.476,94.498,669.062,93.671z"/>
<polygon opacity="0.5" fill="#006237" points="800.271,269.573 800.271,268.254 796.74,269.573 "/>
<linearGradient id="SVGID_4_" gradientUnits="userSpaceOnUse" x1="763.5967" y1="300.3916" x2="763.5967" y2="-46.3394" gradientTransform="matrix(0.9355 -0.3534 0.3534 0.9355 -15.8141 274.1248)">
	<stop  offset="0" style="stop-color:#006237"/>
	<stop  offset="1" style="stop-color:#8ABD24"/>
</linearGradient>
<polygon opacity="0.7" fill="url(#SVGID_4_)" points="800.271,269.573 800.271,268.254 796.74,269.573 "/>
<path opacity="0.7" fill="#64CCC9" d="M470.134,269.103l-0.199,0.471H796.74l3.53-1.319v-59.97
	C568.271,172.397,470.134,269.103,470.134,269.103z"/>
<path opacity="0.5" fill="#006237" d="M470.134,269.103l-0.199,0.471H796.74l3.53-1.319v-59.97
	C568.271,172.397,470.134,269.103,470.134,269.103z"/>
<linearGradient id="SVGID_5_" gradientUnits="userSpaceOnUse" x1="621.3379" y1="298.5801" x2="621.3379" y2="-12.0359" gradientTransform="matrix(0.9355 -0.3534 0.3534 0.9355 -15.8141 274.1248)">
	<stop  offset="0" style="stop-color:#006237"/>
	<stop  offset="1" style="stop-color:#8ABD24"/>
</linearGradient>
<path opacity="0.7" fill="url(#SVGID_5_)" d="M470.134,269.103l-0.199,0.471H796.74l3.53-1.319v-59.97
	C568.271,172.397,470.134,269.103,470.134,269.103z"/>
</svg>
